<?xml version="1.0" encoding="UTF-8" standalone="no"?>
<!DOCTYPE svg PUBLIC "-//W3C//DTD SVG 1.1//EN" "http://www.w3.org/Graphics/SVG/1.1/DTD/svg11.dtd">
<!-- Created with Vectornator (http://vectornator.io/) -->
<svg height="100%" stroke-miterlimit="10" style="fill-rule:nonzero;clip-rule:evenodd;stroke-linecap:round;stroke-linejoin:round;" version="1.1" viewBox="120.622 93.1835 274.338 331.529" width="100%" xml:space="preserve" xmlns="http://www.w3.org/2000/svg" xmlns:vectornator="http://vectornator.io" xmlns:xlink="http://www.w3.org/1999/xlink">
<defs/>
<g id="Calque-1-copier" vectornator:layerName="Calque 1 copier">
<g opacity="1" vectornator:layerName="Grouper 1">
<path d="M235.102 424.712C213.803 424.712 194.502 419.905 177.196 410.291C159.891 400.677 146.136 386.626 135.93 368.138C125.725 349.649 120.622 327.094 120.622 300.47L120.622 225.925C120.622 185.99 131.863 155.3 154.345 133.853C176.827 112.407 207.295 101.684 245.751 101.684C283.911 101.684 313.419 111.815 334.274 132.078C355.128 152.342 365.556 179.778 365.556 214.389L365.556 216.163L307.872 216.163L307.872 212.614C307.872 201.669 305.58 191.759 300.994 182.884C296.409 174.01 289.532 166.984 280.361 161.808C271.191 156.631 259.655 154.043 245.751 154.043C225.044 154.043 208.775 160.403 196.942 173.123C185.109 185.843 179.193 203.148 179.193 225.038L179.193 301.358C179.193 322.952 185.109 340.331 196.942 353.495C208.775 366.659 225.34 373.241 246.639 373.241C267.937 373.241 283.468 367.62 293.229 356.379C302.991 345.138 307.872 330.939 307.872 313.782L307.872 309.345L234.215 309.345L234.215 259.648L365.556 259.648L365.556 418.5L311.422 418.5L311.422 388.771L303.435 388.771C301.364 393.8 298.036 399.124 293.451 404.745C288.866 410.365 281.988 415.098 272.818 418.944C263.648 422.789 251.076 424.712 235.102 424.712Z" fill="#f94c4c" opacity="1" stroke="none" vectornator:layerName="Texte 1"/>
<path d="M264.506 416.212C243.207 416.212 223.906 411.405 206.601 401.791C189.295 392.177 175.54 378.126 165.335 359.638C155.129 341.149 150.026 318.594 150.026 291.97L150.026 217.425C150.026 177.49 161.267 146.8 183.749 125.353C206.231 103.907 236.7 93.1835 275.155 93.1835C313.315 93.1835 342.823 103.315 363.678 123.578C384.532 143.842 394.96 171.278 394.96 205.889L394.96 207.663L337.276 207.663L337.276 204.114C337.276 193.169 334.984 183.259 330.399 174.384C325.813 165.51 318.936 158.484 309.766 153.308C300.595 148.131 289.059 145.543 275.155 145.543C254.448 145.543 238.179 151.903 226.346 164.623C214.514 177.343 208.597 194.648 208.597 216.538L208.597 292.858C208.597 314.452 214.514 331.831 226.346 344.995C238.179 358.159 254.744 364.741 276.043 364.741C297.341 364.741 312.872 359.12 322.633 347.879C332.395 336.638 337.276 322.439 337.276 305.282L337.276 300.845L263.619 300.845L263.619 251.148L394.96 251.148L394.96 410L340.826 410L340.826 380.271L332.839 380.271C330.768 385.3 327.44 390.624 322.855 396.245C318.27 401.865 311.393 406.598 302.222 410.444C293.052 414.289 280.48 416.212 264.506 416.212Z" fill="#724cf9" opacity="1" stroke="none" vectornator:layerName="Texte 1"/>
</g>
</g>
</svg>
