<?xml version="1.0" standalone="no"?>
<!DOCTYPE svg PUBLIC "-//W3C//DTD SVG 20010904//EN"
 "http://www.w3.org/TR/2001/REC-SVG-20010904/DTD/svg10.dtd">
<svg version="1.0" xmlns="http://www.w3.org/2000/svg"
 width="134.000000pt" height="134.000000pt" viewBox="0 0 134.000000 134.000000"
 preserveAspectRatio="xMidYMid meet">
<metadata>
Created by potrace 1.14, written by Peter Selinger 2001-2017
</metadata>
<g transform="translate(0.000000,134.000000) scale(0.100000,-0.100000)"
fill="#000000" stroke="none">
<path d="M593 1205 c-204 -45 -333 -207 -363 -454 -21 -169 15 -357 91 -470
114 -172 323 -218 634 -140 118 29 115 23 114 258 0 299 -4 304 -223 309 -161
4 -170 1 -182 -64 -10 -56 15 -100 66 -114 23 -6 49 -10 58 -9 9 1 32 1 50 0
l33 -1 -3 -107 -3 -107 -30 -8 c-55 -16 -196 -13 -240 6 -88 37 -136 114 -153
246 -20 144 0 285 51 371 25 42 44 60 87 82 50 26 62 28 137 25 70 -4 93 -10
156 -41 41 -20 84 -37 95 -37 11 0 32 15 47 32 67 80 60 112 -33 161 -122 65
-271 88 -389 62z"/>
</g>
</svg>
