<?xml version="1.0" standalone="no"?>
<!DOCTYPE svg PUBLIC "-//W3C//DTD SVG 20010904//EN"
 "http://www.w3.org/TR/2001/REC-SVG-20010904/DTD/svg10.dtd">
<svg version="1.0" xmlns="http://www.w3.org/2000/svg"
 width="664.000000pt" height="664.000000pt" viewBox="0 0 664.000000 664.000000"
 preserveAspectRatio="xMidYMid meet">
<metadata>
Created by potrace 1.14, written by Peter Selinger 2001-2017
</metadata>
<g transform="translate(0.000000,664.000000) scale(0.100000,-0.100000)"
fill="#000000" stroke="none">
<path d="M3418 6635 c-2 -2 -39 -6 -83 -10 -44 -3 -93 -8 -110 -10 -16 -3 -48
-7 -70 -10 -89 -13 -113 -17 -190 -35 -27 -6 -59 -13 -70 -14 -41 -6 -181 -48
-273 -82 -103 -39 -165 -58 -227 -70 -22 -4 -44 -8 -50 -10 -5 -1 -21 -5 -35
-8 -172 -37 -408 -124 -577 -213 -82 -43 -241 -139 -263 -160 -8 -7 -51 -42
-95 -77 -150 -119 -299 -280 -402 -433 -50 -73 -62 -93 -55 -93 4 0 3 -4 -3
-8 -14 -10 -119 -203 -126 -230 -2 -11 -15 -42 -34 -87 -13 -32 -45 -124 -61
-180 -14 -47 -55 -206 -59 -230 -2 -16 -7 -40 -9 -51 -5 -24 -11 -63 -22 -139
-3 -27 -8 -57 -9 -66 -30 -168 -29 -2248 2 -2384 2 -11 6 -38 9 -60 4 -36 27
-160 38 -210 2 -11 9 -42 15 -70 6 -27 16 -61 21 -75 5 -14 11 -34 13 -45 2
-11 7 -27 10 -35 3 -8 20 -55 38 -105 33 -92 105 -249 159 -342 29 -52 139
-220 165 -251 72 -89 142 -167 205 -228 77 -74 95 -90 150 -134 18 -14 44 -35
59 -46 51 -41 197 -131 296 -181 253 -130 515 -206 822 -240 89 -10 489 -10
573 0 119 14 204 28 265 44 33 8 67 17 75 19 34 8 105 36 184 73 60 28 104 41
152 46 123 11 354 75 412 113 12 8 22 10 22 6 0 -5 4 -4 8 1 8 12 87 55 99 55
5 0 8 -55 8 -123 l0 -122 537 0 c295 0 539 3 543 6 3 4 6 40 6 82 0 49 5 77
12 79 7 2 139 4 295 3 l282 0 0 1590 0 1591 -1312 0 c-722 0 -1315 -4 -1319
-8 -3 -4 -4 -41 -3 -82 2 -50 -2 -76 -9 -78 -7 -2 -139 -4 -294 -3 -277 0
-283 0 -284 -20 -1 -24 -1 -932 0 -957 1 -17 45 -18 739 -20 l737 -3 -2 -90
c-2 -144 -17 -267 -43 -366 -22 -80 -57 -178 -70 -194 -7 -8 -10 -15 -7 -15 9
0 -70 -137 -112 -195 -50 -71 -147 -167 -208 -208 l-52 -35 -168 3 c-92 2
-184 6 -203 9 -60 9 -114 18 -132 22 -10 2 -28 6 -39 9 -103 22 -247 83 -365
153 -44 26 -118 84 -168 131 -64 61 -174 195 -197 239 -8 15 -16 29 -19 32
-19 17 -127 265 -135 310 -1 3 -4 14 -8 25 -9 30 -31 137 -41 205 -2 19 -8 58
-12 85 -10 67 -12 1866 -2 1930 4 28 9 75 12 105 3 30 5 55 6 55 1 0 3 7 5 15
1 8 8 42 16 75 7 33 13 62 14 65 0 3 11 37 23 75 44 135 139 308 226 414 85
102 271 252 319 257 81 8 289 2 377 -12 25 -4 54 -8 65 -9 95 -13 276 -78 376
-136 214 -124 348 -278 453 -522 14 -31 25 -58 25 -60 0 -1 2 -9 5 -17 34
-101 58 -265 59 -402 l1 -78 31 -1 c16 0 277 -2 578 -2 l548 -2 -1 60 c-1 33
-1 72 -1 86 l1 27 278 0 c152 0 286 1 296 1 18 1 19 8 12 154 -3 83 -8 170
-11 192 -28 251 -75 447 -152 645 -31 79 -117 254 -144 291 -10 15 -19 30 -19
33 0 24 -215 290 -296 366 -91 85 -181 160 -192 160 -6 0 -12 4 -14 8 -4 11
-138 104 -138 95 0 -3 -8 1 -17 9 -45 39 -287 151 -413 191 -107 34 -205 61
-265 73 -11 2 -31 6 -45 9 -92 18 -131 25 -175 30 -27 4 -66 9 -85 11 -19 3
-57 7 -85 10 -57 6 -592 14 -597 9z"/>
</g>
</svg>
